Inland Empire (2006)

Director: David Lynch

nland Empire is a 2006 nonlinear psychological thriller film  with elements of horror written and directed by David Lynch. It was his first feature-length film since 2001's Mulholland Drive, and shares many similarities with that film. It premiered in Italy at the Venice Film Festival on September 6, 2006. The feature took two and a half years to complete, and was Lynch's first film to have been shot entirely in standard definition digital video.

The cast includes such Lynch regulars as Laura Dern, Justin Theroux, Harry Dean Stanton, and Grace Zabriskie, as well as Jeremy Irons and Diane Ladd. There are also very brief appearances by Nastassja Kinski, William H. Macy, Laura Harring, Terry Crews, Mary Steenburgen, and Ben Harper. The voices of Harring, Naomi Watts, and Scott Coffey are included in excerpts from Lynch's Rabbits website project.

It was named the second-best film of 2007 (tied with two others) by Cahiers du cinéma, and listed among Sight & Sound's "thirty best films of the 2000s", as well as The Guardian's "ten most underrated films of the 2000s".

Media Info:
eneral
Complete name                    : J:\Seeding\Inland Empire (2006)[DVDRip][big_dad_e™]\Inland Empire (2006)[DVDRip][big_dad_e™].avi
Format                           : AVI
Format/Info                      : Audio Video Interleave
Format profile                   : OpenDML
File size                        : 1.77 GiB
Duration                         : 2h 59mn
Overall bit rate                 : 1 407 Kbps
Movie name                       : INLAND_EMPIRE_DISK_1.Title3.DVDRip
Writing application              : Lavf52.78.4
Original source form/Name        : INLAND_EMPIRE_DISK_1

Video
ID                               : 0
Format                           : MPEG-4 Visual
Format profile                   : Advanced Simple@L5
Format settings, BVOP            : 2
Format settings, QPel            : No
Format settings, GMC             : No warppoints
Format settings, Matrix          : Default (H.263)
Muxing mode                      : Packed bitstream
Codec ID                         : XVID
Codec ID/Hint                    : XviD
Duration                         : 2h 59mn
Bit rate                         : 655 Kbps
Width                            : 720 pixels
Height                           : 392 pixels
Display aspect ratio             : 16:9
Frame rate                       : 29.970 fps
Color space                      : YUV
Chroma subsampling               : 4:2:0
Bit depth                        : 8 bits
Scan type                        : Progressive
Compression mode                 : Lossy
Bits/(Pixel*Frame)               : 0.077
Stream size                      : 843 MiB (47%)
Writing library                  : XviD 
Audio
ID                               : 1
Format                           : MPEG Audio
Codec ID                         : 55
Codec ID/Hint                    : MP3
Duration                         : 2h 59mn
Bit rate                         : 320 Kbps
Channel(s)                       : 2 channels
Sampling rate                    : 48.0 KHz
Compression mode                 : Lossy
Stream size                      : 239 MiB (13%)
Alignment                        : Aligned on interleaves
Interleave, duration             : 26 ms (0.78 video frame)
Interleave, preload duration     : 24 ms

File Scan:
Malwarebytes' Anti-Malware 1.50.1.1100
www.malwarebytes.org

Database version: 6094
3/18/2011 9:55:38 AM
mbam-log-2011-03-18 (09-55-38).txt

Scan type: Quick scan
Objects scanned: 5
Time elapsed: 24 second(s)

Memory Processes Infected: 0
Memory Modules Infected: 0
Registry Keys Infected: 0
Registry Values Infected: 0
Registry Data Items Infected: 0
Folders Infected: 0
Files Infected: 0

Memory Processes Infected:
(No malicious items detected)

Memory Modules Infected:
(No malicious items detected)

Registry Keys Infected:
(No malicious items detected)

Registry Values Infected:
(No malicious items detected)

Registry Data Items Infected:
(No malicious items detected)

Folders Infected:
(No malicious items detected)

Files Infected:
(No malicious items detected)

When using TPB please read these important notes:
  
01- Anti-malware apps may warn about keygens, patches, cracks, etc., because of 
    their capabilities, (generating codes, etc.). Sometimes they're added to 
    the virus/spyware database and will be detected as malware. If you don't trust
    the keygens, patches, cracks, etc., don't use them. 
    
02- Before running .exe-files, keygens, patches, cracks, etc., always check first 
    if they can be unpacked. Often some third party added a virus to the 
    original file, repacked it and uploaded it again.

03- Letting anti-malware apps send scan results to their companies can cause
    keygens, patches, cracks, etc., to be added to their virus-database.

04- Firewalls which are set to automatically determine connections will allow 
    apps & malware!. Avoid this by manually configuring your firewall.

05- Usually (new) torrents with many downloads and seeders in a brief period is
    suspicious! Torrents with the Skull & Crossbones icon are trusted.

06- Some people use multiple accounts and post fake comments 
    and/or files trying to spread confusion. They seldom seriously
    comment or have any torrents, or a just a few to look passable.

07- Clicking on unknown links can cause malware to be installed on your machine.
  
08- In general often there are more fake and negative comments than reliable and
    positive comments.

09- In some countries uploading/downloading copyright protected material is 
    forbidden, but showing some appreciation to reliable up-loaders is not.

10- Posting fake and negative comments or fake/infected uploads on TPB can result
    in getting banned from TPB!

Requests?  Find me on SuprBay. http://forum.suprbay.org
 

For reporting bad or suspicious torrents:  
http://forum.suprbay.org/forumdisplay.php?fid=29

For more of my torrents: 
https://thepiratebay.org/user/big_dad_e/  (Secured)

All torrents scanned with:
Norton Anti-virus
Malwarebytes' Anti-malware
 
http://www.pirate-party.us/

ALWAYS SEED & THANKS SEEDERS!